# xmcd CD database file
#
# Track frame offsets:
#	150
#	17037
#	33900
#	52650
#	69537
#
# Disc length: 1148 seconds
#
# Revision: 0
# Processed by: cddbd v1.5.2PL0 Copyright (c) Steve Scherf et al.
# Submitted via: CDex 1.70beta2
#
DISCID=33047a05
DTITLE=AAA - 唇からロマンチカ／That's Right
DYEAR=2007
DGENRE=avex
TTITLE0=唇からロマンチカ
TTITLE1=That's Right
TTITLE2=Let it beat! [Aurum vs. Ovrar mix]
TTITLE3=唇からロマンチカ (Instrumental)
TTITLE4=That's Right (Instrumental)
EXTD=YEAR: 2007
EXTT0=
EXTT1=
EXTT2=
EXTT3=
EXTT4=
PLAYORDER=
